<svg height="512pt" viewBox="-106 0 512 512.00081" width="512pt" xmlns="http://www.w3.org/2000/svg"><path d="m287.183594 446.203125h-222.566406v-292.800781h98.011718l135.617188 275.007812c4.046875 8.199219-1.921875 17.792969-11.0625 17.792969zm0 0" fill="#fa503c"/><path d="m64.617188 310.3125v179.484375c0 12.261719 9.941406 22.203125 22.207031 22.203125 12.261719 0 22.203125-9.941406 22.203125-22.203125v-177.484375h9.191406v177.484375c0 12.261719 9.941406 22.203125 22.207031 22.203125 12.261719 0 22.203125-9.941406 22.203125-22.203125v-179.484375zm0 0" fill="#5f6e9b"/><path d="m118.21875 310.3125v179.484375c0 12.261719 9.941406 22.203125 22.207031 22.203125 12.261719 0 22.203125-9.941406 22.203125-22.203125v-179.484375zm0 0" fill="#414b82"/><g fill="#ffb69e"><path d="m67.726562 187.605469-54.714843-71.128907c-2.09375-2.722656-3.394531-5.972656-3.757813-9.390624l-9.148437-86.519532c-1.082031-10.21875 6.328125-19.378906 16.546875-20.460937 10.226562-1.082031 19.382812 6.328125 20.464844 16.546875l8.597656 81.296875 51.511718 66.964843c6.265626 8.144532 4.742188 19.828126-3.40625 26.09375-8.128906 6.253907-19.816406 4.757813-26.09375-3.402343zm0 0"/><path d="m133.886719 191.007812c-8.148438-6.265624-9.671875-17.949218-3.40625-26.09375l51.511719-66.964843 8.601562-81.296875c1.078125-10.21875 10.234375-17.625 20.460938-16.546875 10.21875 1.082031 17.628906 10.242187 16.546874 20.460937l-9.148437 86.523438c-.363281 3.414062-1.664063 6.664062-3.757813 9.386718l-54.714843 71.128907c-6.265625 8.144531-17.949219 9.671875-26.09375 3.402343zm0 0"/><path d="m152.175781 93.71875c0 21.179688-17.171875 38.347656-38.351562 38.347656-21.179688 0-38.347657-17.167968-38.347657-38.347656s17.167969-38.351562 38.347657-38.351562c21.179687 0 38.351562 17.171874 38.351562 38.351562zm0 0"/></g><path d="m190.589844 16.652344-8.597656 81.296875-42.65625 55.453125h-50.96875l-42.65625-55.453125-8.597657-81.296875-37.007812 3.914062 9.148437 86.523438c.363282 3.414062 1.664063 6.664062 3.757813 9.386718l51.609375 67.089844v128.472656h98.007812v-127.878906l52.066406-67.683594c2.09375-2.722656 3.394532-5.972656 3.753907-9.386718l9.152343-86.523438zm0 0" fill="#64afff"/><path d="m137.378906 200.015625c0 13.117187-10.636718 23.753906-23.753906 23.753906-13.121094 0-23.753906-10.636719-23.753906-23.753906 0-13.121094 10.632812-23.753906 23.753906-23.753906 13.117188 0 23.753906 10.632812 23.753906 23.753906zm0 0" fill="#fff"/></svg>